<?xml version="1.0" encoding="UTF-8" standalone="no"?>
<!-- Created with Inkscape (http://www.inkscape.org/) -->

<svg
   xmlns:dc="http://purl.org/dc/elements/1.1/"
   xmlns:cc="http://creativecommons.org/ns#"
   xmlns:rdf="http://www.w3.org/1999/02/22-rdf-syntax-ns#"
   xmlns:svg="http://www.w3.org/2000/svg"
   xmlns="http://www.w3.org/2000/svg"
   xmlns:sodipodi="http://sodipodi.sourceforge.net/DTD/sodipodi-0.dtd"
   xmlns:inkscape="http://www.inkscape.org/namespaces/inkscape"
   width="210mm"
   height="297mm"
   viewBox="0 0 210 297"
   version="1.1"
   id="svg8"
   inkscape:version="0.92.4 5da689c313, 2019-01-14"
   sodipodi:docname="taiko.svg">
  <defs
     id="defs2" />
  <sodipodi:namedview
     id="base"
     pagecolor="#ffffff"
     bordercolor="#666666"
     borderopacity="1.0"
     inkscape:pageopacity="0.0"
     inkscape:pageshadow="2"
     inkscape:zoom="0.49497475"
     inkscape:cx="234.26815"
     inkscape:cy="476.37383"
     inkscape:document-units="mm"
     inkscape:current-layer="layer1"
     showgrid="false"
     inkscape:window-width="1342"
     inkscape:window-height="723"
     inkscape:window-x="10"
     inkscape:window-y="31"
     inkscape:window-maximized="0" />
  <metadata
     id="metadata5">
    <rdf:RDF>
      <cc:Work
         rdf:about="">
        <dc:format>image/svg+xml</dc:format>
        <dc:type
           rdf:resource="http://purl.org/dc/dcmitype/StillImage" />
        <dc:title></dc:title>
      </cc:Work>
    </rdf:RDF>
  </metadata>
  <g
     inkscape:label="Camada 1"
     inkscape:groupmode="layer"
     id="layer1">
    <ellipse
       id="path10"
       style="fill:#808080;fill-opacity:0;stroke:#000000;stroke-width:3;stroke-opacity:1;stroke-miterlimit:4;stroke-dasharray:none"
       cx="105.00003"
       cy="37.168629"
       rx="104.34916"
       ry="36.517525" />
    <path
       style="fill:none;stroke:#000000;stroke-width:3;stroke-linecap:butt;stroke-linejoin:miter;stroke-opacity:1;stroke-miterlimit:4;stroke-dasharray:none"
       d="M 209.34918,36.928364 V 260.11755"
       id="path838"
       inkscape:connector-curvature="0" />
    <path
       style="fill:none;stroke:#000000;stroke-width:3;stroke-linecap:butt;stroke-linejoin:miter;stroke-opacity:1;stroke-miterlimit:4;stroke-dasharray:none"
       d="M 0.70069537,36.262385 V 259.45156"
       id="path838-3"
       inkscape:connector-curvature="0" />
    <path
       id="path10-6"
       style="fill:#808080;fill-opacity:0;stroke:#000000;stroke-width:3;stroke-opacity:1;stroke-miterlimit:4;stroke-dasharray:none"
       sodipodi:type="arc"
       sodipodi:cx="105.00003"
       sodipodi:cy="259.8291"
       sodipodi:rx="104.34916"
       sodipodi:ry="36.517529"
       sodipodi:start="0"
       sodipodi:end="3.1415927"
       d="m 209.34919,259.8291 a 104.34916,36.517529 0 0 1 -52.17458,31.62511 104.34916,36.517529 0 0 1 -104.349162,0 A 104.34916,36.517529 0 0 1 0.65087128,259.8291"
       sodipodi:open="true" />
    <path
       style="fill:#ffffff;fill-opacity:0;stroke:#000000;stroke-width:0;stroke-miterlimit:4;stroke-dasharray:none;stroke-opacity:1"
       d="M 284.99516,265.82476 C 121.13995,247.15506 9.2808738,195.95395 9.2808738,139.62242 9.2808738,96.758999 86.842465,51.281939 198.28841,28.800722 255.29795,17.300585 300.77673,12.58628 370.70945,10.927651 515.79887,7.4864946 640.43076,28.726165 721.53079,70.714359 851.87845,138.1997 768.52859,226.95244 542.13802,261.73569 490.55813,269.66056 339.7127,272.0593 284.99516,265.82476 Z"
       id="path953"
       inkscape:connector-curvature="0"
       transform="scale(0.26458333)" />
    <path
       style="fill:#ffffff;fill-opacity:0;stroke:#000000;stroke-width:0;stroke-miterlimit:4;stroke-dasharray:none;stroke-opacity:1"
       d="M 284.99516,265.82476 C 121.13995,247.15506 9.2808738,195.95395 9.2808738,139.62242 9.2808738,96.758999 86.842465,51.281939 198.28841,28.800722 255.29795,17.300585 300.77673,12.58628 370.70945,10.927651 515.79887,7.4864946 640.43076,28.726165 721.53079,70.714359 851.87845,138.1997 768.52859,226.95244 542.13802,261.73569 490.55813,269.66056 339.7127,272.0593 284.99516,265.82476 Z"
       id="path955"
       inkscape:connector-curvature="0"
       transform="scale(0.26458333)" />
    <path
       style="fill:#ffffff;fill-opacity:0;stroke:#000000;stroke-width:0;stroke-miterlimit:4;stroke-dasharray:none;stroke-opacity:1"
       d="M 310.70945,1109.7712 C 164.07804,1097.744 46.499014,1056.2909 17.984656,1006.5693 L 9.3344969,991.48572 9.3076855,586.09475 9.2808738,180.70377 22.852302,193.34789 c 42.40446,39.50705 125.693448,68.53489 242.142858,84.39151 53.17571,7.24081 212.85266,7.20416 264.28571,-0.0607 120.40058,-17.00634 204.57446,-46.67223 243.84026,-85.93803 L 783.56659,181.2952 V 587.97398 994.6527 l -8.36077,13.1835 c -32.19117,50.7603 -148.05572,90.4307 -298.48272,102.1964 -42.23594,3.3035 -124.1234,3.1745 -166.01365,-0.2614 z"
       id="path957"
       inkscape:connector-curvature="0"
       transform="scale(0.26458333)" />
    <path
       style="fill:#ffffff;fill-opacity:0;stroke:#000000;stroke-width:0;stroke-miterlimit:4;stroke-dasharray:none;stroke-opacity:1"
       d="M 338.22524,1111.8253 C 261.51403,1107.8455 187.11531,1095.1851 130.59781,1076.4934 67.099288,1055.4929 27.378838,1029.6158 13.767899,1000.381 L 8.8415783,989.79975 8.8218421,584.31005 8.802106,178.82036 l 9.505736,10.1624 c 67.110421,71.74647 292.434518,112.43252 496.747868,89.69619 120.5731,-13.41759 213.09497,-44.78362 257.75503,-87.38211 l 11.78852,-11.24434 v 404.00865 c 0,457.98545 1.77039,414.22212 -17.6034,435.14815 -46.38368,50.0999 -165.53051,84.8807 -317.76724,92.7612 -43.79234,2.2669 -65.04524,2.2391 -111.00338,-0.1452 z"
       id="path987"
       inkscape:connector-curvature="0"
       transform="scale(0.26458333)" />
    <path
       style="fill:#ffffff;fill-opacity:0;stroke:#000000;stroke-width:0;stroke-miterlimit:4;stroke-dasharray:none;stroke-opacity:1"
       d="M 338.22524,1111.8253 C 261.51403,1107.8455 187.11531,1095.1851 130.59781,1076.4934 67.099288,1055.4929 27.378838,1029.6158 13.767899,1000.381 L 8.8415783,989.79975 8.8218421,584.31005 8.802106,178.82036 l 9.505736,10.1624 c 67.110421,71.74647 292.434518,112.43252 496.747868,89.69619 120.5731,-13.41759 213.09497,-44.78362 257.75503,-87.38211 l 11.78852,-11.24434 v 404.00865 c 0,457.98545 1.77039,414.22212 -17.6034,435.14815 -46.38368,50.0999 -165.53051,84.8807 -317.76724,92.7612 -43.79234,2.2669 -65.04524,2.2391 -111.00338,-0.1452 z"
       id="path989"
       inkscape:connector-curvature="0"
       transform="scale(0.26458333)" />
    <path
       style="fill:#ffffff;fill-opacity:0;stroke:#000000;stroke-width:0;stroke-miterlimit:4;stroke-dasharray:none;stroke-opacity:1"
       d=""
       id="path991"
       inkscape:connector-curvature="0"
       transform="scale(0.26458333)" />
    <path
       style="fill:#ffffff;fill-opacity:0;stroke:#000000;stroke-width:0;stroke-miterlimit:4;stroke-dasharray:none;stroke-opacity:1"
       d="M 315.88848,1121.9693 C 152.33535,1108.9547 30.351931,1063.6628 3.449761,1005.9622 -2.4837908,993.23572 -2.9126971,982.72868 2.5013502,982.72868 c 2.8567174,0 4.3859587,2.38362 6.1567506,9.59645 5.9993722,24.43687 30.2490782,46.61057 73.6449492,67.34027 136.85637,65.3749 411.11818,74.2665 581.07791,18.8386 33.72481,-10.9985 75.51425,-31.6092 92.76459,-45.752 14.33125,-11.7495 25.22478,-26.1541 28.38563,-37.53456 1.37605,-4.95442 2.06962,-143.66966 2.07711,-415.43255 l 0.0113,-407.99456 -5.90879,8.03469 C 762.76566,204.2266 719.48133,228.92289 663.02558,246.97147 487.22415,303.17413 211.61639,292.49601 73.151684,224.11745 45.816142,210.61824 25.777467,195.93061 13.347792,180.28337 L 6.7818009,172.0177 v 403.33519 c 0,401.9883 -0.013493,403.33518 -4.0406102,403.33518 -4.0262616,0 -4.0420252,-1.47971 -4.4391055,-416.68793 C -1.9170872,332.82179 -1.8622405,141.2211 -1.5760334,136.22085 -0.81035938,122.84395 7.1076862,107.39273 20.266933,93.596631 80.265879,30.694002 252.40688,-8.0777253 440.15936,-0.97674025 502.68767,1.3881418 545.24054,6.2793922 597.80317,17.143666 699.96314,38.259311 767.19207,72.603053 789.3694,115.00483 l 6.34154,12.12464 v 433.35544 433.35545 l -5.44652,11.62204 c -25.60222,54.6316 -131.62496,97.3209 -282.79594,113.8659 -34.33986,3.7584 -156.39354,5.4409 -191.58,2.641 z M 466.40121,271.53234 c 161.37914,-10.68639 285.2535,-53.76517 314.44426,-109.35176 7.03652,-13.3993 6.54088,-31.72414 -1.2398,-45.83824 C 760.94244,82.487345 701.19787,50.995884 617.92409,31.119678 431.58709,-13.356174 172.70112,6.9451851 58.688253,74.973917 38.327679,87.122582 18.305015,106.30935 12.402119,119.32772 c -6.0348435,13.30937 -5.9151596,30.86831 0.292677,42.93897 27.868872,54.18886 154.121514,98.58763 310.285784,109.11699 35.35328,2.3837 108.52321,2.45954 143.42063,0.1487 z"
       id="path993"
       inkscape:connector-curvature="0"
       transform="scale(0.26458333)" />
    <path
       style="fill:#ff0000;fill-opacity:0;stroke:#000000;stroke-width:0;stroke-miterlimit:4;stroke-dasharray:none;stroke-opacity:1"
       d="M 315.88848,1121.9693 C 152.33535,1108.9547 30.351931,1063.6628 3.449761,1005.9622 -2.4837908,993.23572 -2.9126971,982.72868 2.5013502,982.72868 c 2.8567174,0 4.3859587,2.38362 6.1567506,9.59645 5.9993722,24.43687 30.2490782,46.61057 73.6449492,67.34027 136.85637,65.3749 411.11818,74.2665 581.07791,18.8386 33.72481,-10.9985 75.51425,-31.6092 92.76459,-45.752 14.33125,-11.7495 25.22478,-26.1541 28.38563,-37.53456 1.37605,-4.95442 2.06962,-143.66966 2.07711,-415.43255 l 0.0113,-407.99456 -5.90879,8.03469 C 762.76566,204.2266 719.48133,228.92289 663.02558,246.97147 487.22415,303.17413 211.61639,292.49601 73.151684,224.11745 45.816142,210.61824 25.777467,195.93061 13.347792,180.28337 L 6.7818009,172.0177 v 403.33519 c 0,401.9883 -0.013493,403.33518 -4.0406102,403.33518 -4.0262616,0 -4.0420252,-1.47971 -4.4391055,-416.68793 C -1.9170872,332.82179 -1.8622405,141.2211 -1.5760334,136.22085 -0.81035938,122.84395 7.1076862,107.39273 20.266933,93.596631 80.265879,30.694002 252.40688,-8.0777253 440.15936,-0.97674025 502.68767,1.3881418 545.24054,6.2793922 597.80317,17.143666 699.96314,38.259311 767.19207,72.603053 789.3694,115.00483 l 6.34154,12.12464 v 433.35544 433.35545 l -5.44652,11.62204 c -25.60222,54.6316 -131.62496,97.3209 -282.79594,113.8659 -34.33986,3.7584 -156.39354,5.4409 -191.58,2.641 z M 466.40121,271.53234 c 161.37914,-10.68639 285.2535,-53.76517 314.44426,-109.35176 7.03652,-13.3993 6.54088,-31.72414 -1.2398,-45.83824 C 760.94244,82.487345 701.19787,50.995884 617.92409,31.119678 431.58709,-13.356174 172.70112,6.9451851 58.688253,74.973917 38.327679,87.122582 18.305015,106.30935 12.402119,119.32772 c -6.0348435,13.30937 -5.9151596,30.86831 0.292677,42.93897 27.868872,54.18886 154.121514,98.58763 310.285784,109.11699 35.35328,2.3837 108.52321,2.45954 143.42063,0.1487 z"
       id="path995"
       inkscape:connector-curvature="0"
       transform="scale(0.26458333)" />
    <path
       style="fill:#ff0000;fill-opacity:0;stroke:#000000;stroke-width:0;stroke-miterlimit:4;stroke-dasharray:none;stroke-opacity:1"
       d="M 338.22524,1111.8253 C 261.51403,1107.8455 187.11531,1095.1851 130.59781,1076.4934 67.099288,1055.4929 27.378838,1029.6158 13.767899,1000.381 L 8.8415783,989.79975 8.8218421,584.31005 8.802106,178.82036 l 9.505736,10.1624 c 67.110421,71.74647 292.434518,112.43252 496.747868,89.69619 120.5731,-13.41759 213.09497,-44.78362 257.75503,-87.38211 l 11.78852,-11.24434 v 404.00865 c 0,457.98545 1.77039,414.22212 -17.6034,435.14815 -46.38368,50.0999 -165.53051,84.8807 -317.76724,92.7612 -43.79234,2.2669 -65.04524,2.2391 -111.00338,-0.1452 z"
       id="path997"
       inkscape:connector-curvature="0"
       transform="scale(0.26458333)" />
    <path
       style="fill:#ff0000;fill-opacity:0;stroke:#000000;stroke-width:0;stroke-miterlimit:4;stroke-dasharray:none;stroke-opacity:1"
       d="M 338.22524,1111.8253 C 261.51403,1107.8455 187.11531,1095.1851 130.59781,1076.4934 67.099288,1055.4929 27.378838,1029.6158 13.767899,1000.381 L 8.8415783,989.79975 8.8218421,584.31005 8.802106,178.82036 l 9.505736,10.1624 c 67.110421,71.74647 292.434518,112.43252 496.747868,89.69619 120.5731,-13.41759 213.09497,-44.78362 257.75503,-87.38211 l 11.78852,-11.24434 v 404.00865 c 0,457.98545 1.77039,414.22212 -17.6034,435.14815 -46.38368,50.0999 -165.53051,84.8807 -317.76724,92.7612 -43.79234,2.2669 -65.04524,2.2391 -111.00338,-0.1452 z"
       id="path999"
       inkscape:connector-curvature="0"
       transform="scale(0.26458333)" />
    <path
       style="fill:#ff0000;fill-opacity:0;stroke:#000000;stroke-width:0;stroke-miterlimit:4;stroke-dasharray:none;stroke-opacity:1"
       d="M 338.22524,1111.8253 C 261.51403,1107.8455 187.11531,1095.1851 130.59781,1076.4934 67.099288,1055.4929 27.378838,1029.6158 13.767899,1000.381 L 8.8415783,989.79975 8.8218421,584.31005 8.802106,178.82036 l 9.505736,10.1624 c 67.110421,71.74647 292.434518,112.43252 496.747868,89.69619 120.5731,-13.41759 213.09497,-44.78362 257.75503,-87.38211 l 11.78852,-11.24434 v 404.00865 c 0,457.98545 1.77039,414.22212 -17.6034,435.14815 -46.38368,50.0999 -165.53051,84.8807 -317.76724,92.7612 -43.79234,2.2669 -65.04524,2.2391 -111.00338,-0.1452 z"
       id="path1001"
       inkscape:connector-curvature="0"
       transform="scale(0.26458333)" />
    <path
       style="fill:#ff0000;fill-opacity:0;stroke:#000000;stroke-width:0;stroke-miterlimit:4;stroke-dasharray:none;stroke-opacity:1"
       d="M 338.22524,1111.8253 C 261.51403,1107.8455 187.11531,1095.1851 130.59781,1076.4934 67.099288,1055.4929 27.378838,1029.6158 13.767899,1000.381 L 8.8415783,989.79975 8.8218421,584.31005 8.802106,178.82036 l 9.505736,10.1624 c 67.110421,71.74647 292.434518,112.43252 496.747868,89.69619 120.5731,-13.41759 213.09497,-44.78362 257.75503,-87.38211 l 11.78852,-11.24434 v 404.00865 c 0,457.98545 1.77039,414.22212 -17.6034,435.14815 -46.38368,50.0999 -165.53051,84.8807 -317.76724,92.7612 -43.79234,2.2669 -65.04524,2.2391 -111.00338,-0.1452 z"
       id="path1003"
       inkscape:connector-curvature="0"
       transform="scale(0.26458333)" />
    <path
       style="fill:#ffffff;fill-opacity:0;stroke:#000000;stroke-width:0;stroke-miterlimit:4;stroke-dasharray:none;stroke-opacity:1"
       d="M 338.22524,1111.8253 C 261.51403,1107.8455 187.11531,1095.1851 130.59781,1076.4934 67.099288,1055.4929 27.378838,1029.6158 13.767899,1000.381 L 8.8415783,989.79975 8.8218421,584.31005 8.802106,178.82036 l 9.505736,10.1624 c 67.110421,71.74647 292.434518,112.43252 496.747868,89.69619 120.5731,-13.41759 213.09497,-44.78362 257.75503,-87.38211 l 11.78852,-11.24434 v 404.00865 c 0,457.98545 1.77039,414.22212 -17.6034,435.14815 -46.38368,50.0999 -165.53051,84.8807 -317.76724,92.7612 -43.79234,2.2669 -65.04524,2.2391 -111.00338,-0.1452 z"
       id="path1005"
       inkscape:connector-curvature="0"
       transform="scale(0.26458333)" />
    <path
       style="fill:#ffffff;fill-opacity:1;stroke:#000000;stroke-width:0;stroke-miterlimit:4;stroke-dasharray:none;stroke-opacity:1"
       d="M 338.22524,1111.8253 C 261.51403,1107.8455 187.11531,1095.1851 130.59781,1076.4934 67.099288,1055.4929 27.378838,1029.6158 13.767899,1000.381 L 8.8415783,989.79975 8.8218421,584.31005 8.802106,178.82036 l 9.505736,10.1624 c 67.110421,71.74647 292.434518,112.43252 496.747868,89.69619 120.5731,-13.41759 213.09497,-44.78362 257.75503,-87.38211 l 11.78852,-11.24434 v 404.00865 c 0,457.98545 1.77039,414.22212 -17.6034,435.14815 -46.38368,50.0999 -165.53051,84.8807 -317.76724,92.7612 -43.79234,2.2669 -65.04524,2.2391 -111.00338,-0.1452 z"
       id="path1007"
       inkscape:connector-curvature="0"
       transform="scale(0.26458333)" />
    <path
       style="fill:#ffffff;fill-opacity:1;stroke:#000000;stroke-width:0;stroke-miterlimit:4;stroke-dasharray:none;stroke-opacity:1"
       d="M 337.10168,1111.8078 C 193.43935,1104.0263 70.92275,1067.7948 27.458205,1020.2376 21.99193,1014.2567 15.785388,1005.8705 13.66589,1001.6017 9.9182827,994.0539 9.7979614,982.63381 9.292609,586.51917 L 8.7729592,179.19797 22.622603,192.55967 C 113.61544,280.34669 419.0138,312.90859 632.06623,257.5392 698.57279,240.25506 743.79599,218.97222 772.79937,191.30768 l 11.79989,-11.25518 v 404.29276 c 0,400.65244 -0.0368,404.39096 -4.08017,415.19797 -7.21273,19.27777 -32.76326,40.65157 -69.28418,57.95837 -87.30894,41.3746 -230.13437,62.106 -374.13323,54.3062 z"
       id="path1009"
       inkscape:connector-curvature="0"
       transform="scale(0.26458333)" />
    <path
       style="fill:#ffffff;fill-opacity:1;stroke:#000000;stroke-width:0;stroke-miterlimit:4;stroke-dasharray:none;stroke-opacity:1"
       d="M 336.70122,1111.8819 C 173.98293,1103.025 41.5814,1057.8248 13.66589,1001.6017 9.9182659,994.05386 9.7979632,982.63124 9.2925918,586.36098 L 8.7729251,178.88159 19.394117,189.47681 c 47.576439,47.46008 153.722383,80.63381 295.484213,92.34751 35.67172,2.94753 131.0918,2.94041 165.66501,-0.0123 139.65087,-11.92709 241.27979,-43.46003 292.29633,-90.69235 l 11.79846,-10.92329 -0.52451,407.83215 -0.52451,407.83216 -4.33265,8.08121 c -4.94536,9.2241 -23.34507,27.3423 -37.79267,37.2146 -5.39024,3.6832 -19.93643,11.4918 -32.32488,17.3524 -85.41269,40.4065 -229.9959,61.1263 -372.43769,53.373 z"
       id="path1011"
       inkscape:connector-curvature="0"
       transform="scale(0.26458333)" />
    <path
       style="fill:#ffffff;fill-opacity:1;stroke:#000000;stroke-width:0;stroke-miterlimit:4;stroke-dasharray:none;stroke-opacity:1"
       d="M 320.93924,269.50397 C 194.57416,259.40572 94.489972,231.78992 42.762045,192.74779 22.447114,177.41491 8.802106,156.36859 8.802106,140.36734 c 0,-20.54487 22.798353,-47.709591 55.55839,-66.199001 C 175.66524,11.349148 408.44035,-9.3416914 591.2195,27.337065 c 96.28034,19.32082 164.22478,51.825284 186.00007,88.981995 37.63792,64.22428 -80.08025,129.42687 -271.42241,150.33739 -34.37624,3.75676 -151.00013,5.55321 -184.85792,2.84752 z"
       id="path1013"
       inkscape:connector-curvature="0"
       transform="scale(0.26458333)" />
    <path
       style="fill:#f9f9f9;fill-opacity:1;stroke:#000000;stroke-width:0;stroke-miterlimit:4;stroke-dasharray:none;stroke-opacity:1"
       d="M 332.05092,270.3309 C 175.25513,259.45608 54.76795,220.38138 19.608771,169.00412 8.8356447,153.2616 6.8168116,142.19935 11.819829,126.32439 14.743291,117.04801 18.162113,112.24496 30.782033,99.684639 48.605686,81.945168 66.656399,70.820017 99.683225,57.218941 293.33097,-22.528891 665.61159,1.26315 764.02472,99.676266 c 39.36342,39.363424 21.28284,80.157144 -51.14629,115.397144 -51.28912,24.95445 -119.83011,42.02587 -207.08127,51.57748 -27.8713,3.05115 -146.56588,5.56516 -173.74624,3.68001 z"
       id="path1015"
       inkscape:connector-curvature="0"
       transform="scale(0.26458333)" />
    <path
       style="fill:#f9f9f9;fill-opacity:1;stroke:#000000;stroke-width:0;stroke-miterlimit:4;stroke-dasharray:none;stroke-opacity:1"
       d="M 335.08138,1111.8907 C 232.07443,1105.7813 143.7889,1086.7687 81.812225,1057.3481 56.679112,1045.4174 39.240786,1033.3199 25.493509,1018.2782 7.1899573,998.25117 8.802106,1040.2413 8.802106,583.53304 V 178.99627 l 11.467973,11.01888 c 50.086375,48.12498 156.677441,80.9672 297.870781,91.7782 41.95032,3.21208 156.63651,1.44921 193.66212,-2.97683 86.68592,-10.36243 153.41144,-26.96678 203.28102,-50.58557 25.54065,-12.09635 41.66154,-22.51209 58.10997,-37.54504 l 11.44416,-10.45931 -0.52451,407.81703 -0.52451,407.81703 -4.38772,8.08124 c -5.16925,9.5206 -23.88455,28.0355 -37.7376,37.3334 -14.78508,9.9236 -52.10573,26.9167 -77.07268,35.0935 -88.62475,29.0249 -212.87638,42.4276 -329.30973,35.5219 z"
       id="path1017"
       inkscape:connector-curvature="0"
       transform="scale(0.26458333)" />
    <path
       style="fill:#f9f9f9;fill-opacity:1;stroke:#000000;stroke-width:0;stroke-miterlimit:4;stroke-dasharray:none;stroke-opacity:1"
       d="m 343.36463,1112.7868 c -32.75646,-1.9507 -83.58222,-7.415 -111.69342,-12.0082 -114.3917,-18.6909 -198.713688,-57.1289 -218.301417,-99.5123 L 9.0041365,991.82005 8.3934734,584.90323 7.7828103,177.98643 20.554782,189.9336 c 16.815297,15.72937 31.209724,25.09243 58.717564,38.19367 C 129.86708,252.22417 197.71833,268.9387 285.78593,279 c 26.01026,2.97155 47.7168,3.68449 111.11678,3.64956 80.06358,-0.0441 96.84183,-1.05105 153.54319,-9.21493 102.33916,-14.73483 190.21354,-48.33452 226.14707,-86.46969 3.2636,-3.46356 6.77948,-6.29738 7.81305,-6.29738 1.15537,0 1.54977,156.61217 1.02391,406.5864 l -0.85532,406.5864 -4.22504,8.08124 c -26.82787,51.3136 -136.17941,92.9144 -281.42145,107.0617 -31.85878,3.1032 -127.89485,5.4513 -155.56349,3.8035 z"
       id="path1069"
       inkscape:connector-curvature="0"
       transform="scale(0.26458333)" />
    <path
       style="fill:#f9f9f9;fill-opacity:1;stroke:#000000;stroke-width:3.77952761;stroke-miterlimit:4;stroke-dasharray:none;stroke-opacity:1"
       d="M 328.01031,1111.9772 C 209.06319,1103.5065 105.03995,1076.7464 51.228513,1040.7748 36.253411,1030.7643 18.759274,1012.6795 13.644394,1001.9216 L 8.8415783,991.82005 8.8218421,584.91341 8.802106,178.00679 21.429013,190.05961 c 20.420868,19.49242 40.832576,31.81832 77.276669,46.6646 46.690448,19.02035 109.339238,33.12091 187.888378,42.28861 37.60501,4.38899 173.8581,5.03942 211.12188,1.00783 134.29465,-14.52941 228.51755,-45.40943 276.27672,-90.54518 l 10.6066,-10.02398 v 406.76985 406.76984 l -4.3125,8.50582 c -22.77454,44.9196 -110.9314,83.6207 -231.05304,101.4329 -59.72042,8.8557 -164.01843,13.1211 -221.22341,9.0473 z"
       id="path1071"
       inkscape:connector-curvature="0"
       transform="scale(0.26458333)" />
    <path
       style="fill:#f9f9f9;fill-opacity:1;stroke:#000000;stroke-width:7.63579893;stroke-miterlimit:4;stroke-dasharray:none;stroke-opacity:1"
       d="M 316.89863,269.31424 C 133.21869,255.28365 0.99885292,197.22604 9.6121721,134.38502 12.944874,110.07031 41.001559,83.501956 84.632314,63.34449 226.78751,-2.3314037 504.44412,-9.3885654 671.56749,48.426434 c 41.83309,14.471823 73.76567,32.189919 93.42392,51.837146 73.06644,73.02547 -68.09333,153.94573 -295.21538,169.23312 -35.70386,2.40319 -120.3501,2.30217 -152.8774,-0.18244 z"
       id="path1073"
       inkscape:connector-curvature="0"
       transform="scale(0.26458333)" />
  </g>
</svg>
